<svg width="20" height="21" viewBox="0 0 20 21" fill="none" xmlns="http://www.w3.org/2000/svg">
<path d="M10.0002 0.800049C8.68703 0.800049 7.38667 1.05871 6.17341 1.56125C4.96015 2.0638 3.85776 2.8004 2.92918 3.72898C1.05381 5.60434 0.000244141 8.14788 0.000244141 10.8C0.000244141 13.4522 1.05381 15.9958 2.92918 17.8711C3.85776 18.7997 4.96015 19.5363 6.17341 20.0388C7.38667 20.5414 8.68703 20.8 10.0002 20.8C12.6524 20.8 15.1959 19.7465 17.0713 17.8711C18.9467 15.9958 20.0002 13.4522 20.0002 10.8C20.0002 9.48683 19.7416 8.18647 19.239 6.97321C18.7365 5.75996 17.9999 4.65757 17.0713 3.72898C16.1427 2.8004 15.0403 2.0638 13.8271 1.56125C12.6138 1.05871 11.3135 0.800049 10.0002 0.800049ZM10.0002 7.19005C11.5702 8.20005 13.4202 8.80005 15.4202 8.80005C16.2002 8.80005 16.9502 8.71005 17.6702 8.54005C17.8802 9.25005 18.0002 10.01 18.0002 10.8C18.0002 15.21 14.4102 18.8 10.0002 18.8C7.00024 18.8 4.39024 17.14 3.00024 14.69L4.75024 12.8V11.8C4.75024 11.4685 4.88194 11.1506 5.11636 10.9162C5.35078 10.6817 5.66872 10.55 6.00024 10.55C6.33176 10.55 6.64971 10.6817 6.88413 10.9162C7.11855 11.1506 7.25024 11.4685 7.25024 11.8V12.8H10.0002M14.0002 10.55C13.6687 10.55 13.3508 10.6817 13.1164 10.9162C12.8819 11.1506 12.7502 11.4685 12.7502 11.8C12.7502 12.1316 12.8819 12.4495 13.1164 12.6839C13.3508 12.9184 13.6687 13.05 14.0002 13.05C14.3318 13.05 14.6497 12.9184 14.8841 12.6839C15.1185 12.4495 15.2502 12.1316 15.2502 11.8C15.2502 11.4685 15.1185 11.1506 14.8841 10.9162C14.6497 10.6817 14.3318 10.55 14.0002 10.55Z" fill="#E6E5E5"/>
</svg>
