<svg width="24" height="24" viewBox="0 0 24 24" fill="none" xmlns="http://www.w3.org/2000/svg">
<path d="M12.0002 2.00006C10.687 2.00006 9.38667 2.25872 8.17341 2.76127C6.96015 3.26381 5.85776 4.00041 4.92918 4.92899C3.05381 6.80436 2.00024 9.3479 2.00024 12.0001C2.00024 14.6522 3.05381 17.1958 4.92918 19.0711C5.85776 19.9997 6.96015 20.7363 8.17341 21.2389C9.38667 21.7414 10.687 22.0001 12.0002 22.0001C14.6524 22.0001 17.1959 20.9465 19.0713 19.0711C20.9467 17.1958 22.0002 14.6522 22.0002 12.0001C22.0002 10.6868 21.7416 9.38648 21.239 8.17323C20.7365 6.95997 19.9999 5.85758 19.0713 4.92899C18.1427 4.00041 17.0403 3.26381 15.8271 2.76127C14.6138 2.25872 13.3135 2.00006 12.0002 2.00006ZM12.0002 8.39006C13.5702 9.40006 15.4202 10.0001 17.4202 10.0001C18.2002 10.0001 18.9502 9.91006 19.6702 9.74006C19.8802 10.4501 20.0002 11.2101 20.0002 12.0001C20.0002 16.4101 16.4102 20.0001 12.0002 20.0001C9.00024 20.0001 6.39024 18.3401 5.00024 15.8901L6.75024 14.0001V13.0001C6.75024 12.6685 6.88194 12.3506 7.11636 12.1162C7.35078 11.8818 7.66872 11.7501 8.00024 11.7501C8.33176 11.7501 8.64971 11.8818 8.88413 12.1162C9.11855 12.3506 9.25024 12.6685 9.25024 13.0001V14.0001H12.0002M16.0002 11.7501C15.6687 11.7501 15.3508 11.8818 15.1164 12.1162C14.8819 12.3506 14.7502 12.6685 14.7502 13.0001C14.7502 13.3316 14.8819 13.6495 15.1164 13.8839C15.3508 14.1184 15.6687 14.2501 16.0002 14.2501C16.3318 14.2501 16.6497 14.1184 16.8841 13.8839C17.1185 13.6495 17.2502 13.3316 17.2502 13.0001C17.2502 12.6685 17.1185 12.3506 16.8841 12.1162C16.6497 11.8818 16.3318 11.7501 16.0002 11.7501Z" fill="black"/>
</svg>
